<svg width="22" height="25" viewBox="0 0 22 25" fill="none" xmlns="http://www.w3.org/2000/svg">
<path d="M21.7039 17.191C21.0703 16.0963 20.3145 14.0074 20.3145 10.2766V9.48351C20.3145 4.28936 16.1685 0.0335106 11.0667 0H11C9.77493 -3.50627e-06 8.5619 0.242855 7.43037 0.714667C6.29883 1.18648 5.27103 1.87798 4.40581 2.74956C3.54059 3.62114 2.85495 4.65569 2.38817 5.79396C1.92138 6.93222 1.68261 8.15184 1.68554 9.38298V10.2766C1.68554 14.0074 0.92971 16.0963 0.296149 17.191C0.101933 17.5312 -0.000173877 17.9167 2.22266e-07 18.309C0.000174321 18.7013 0.102623 19.0867 0.297141 19.4268C0.491659 19.767 0.771457 20.0499 1.10866 20.2475C1.44587 20.4452 1.82872 20.5505 2.21906 20.5532H6.13158C6.24743 21.7701 6.8104 22.9 7.71058 23.7222C8.61077 24.5444 9.78356 25 11 25C12.2164 25 13.3892 24.5444 14.2894 23.7222C15.1896 22.9 15.7526 21.7701 15.8684 20.5532H19.7809C20.1713 20.5505 20.5541 20.4452 20.8913 20.2475C21.2285 20.0499 21.5083 19.767 21.7029 19.4268C21.8974 19.0867 21.9998 18.7013 22 18.309C22.0002 17.9167 21.8981 17.5312 21.7039 17.191ZM11 22.3404C10.4881 22.3384 9.99236 22.1598 9.59579 21.8345C9.19922 21.5092 8.92586 21.0568 8.82144 20.5532H13.1786C13.0741 21.0568 12.8008 21.5092 12.4042 21.8345C12.0076 22.1598 11.5119 22.3384 11 22.3404ZM2.95266 17.8723C4.09752 15.4596 4.35316 12.4548 4.35316 10.2766V9.38298C4.34876 8.50349 4.51753 7.63181 4.84973 6.81813C5.18193 6.00445 5.67101 5.26485 6.28881 4.64191C6.90661 4.01897 7.64093 3.525 8.44948 3.18844C9.25803 2.85187 10.1248 2.67937 11 2.68085H11.0556C14.6902 2.70319 17.6468 5.75266 17.6468 9.48351V10.2766C17.6468 12.4548 17.9025 15.4596 19.0473 17.8723H2.95266Z" fill="#272C31"/>
</svg>
