<svg width="14" height="8" viewBox="0 0 14 8" fill="none" xmlns="http://www.w3.org/2000/svg">
<path d="M5.75672e-07 0.924819C0.00104992 0.680243 0.0965978 0.445754 0.266275 0.271344C0.35109 0.185337 0.451872 0.117095 0.562842 0.0705319C0.673811 0.0239687 0.792785 0 0.912941 0C1.0331 0 1.15207 0.0239687 1.26304 0.0705319C1.37401 0.117095 1.47479 0.185337 1.55961 0.271344L6.99921 5.76823L12.4388 0.271344C12.6103 0.098031 12.8429 0.000665141 13.0855 0.000665141C13.2056 0.000665141 13.3245 0.0245692 13.4354 0.0710123C13.5464 0.117455 13.6472 0.185528 13.7321 0.271344C13.8171 0.357159 13.8844 0.459037 13.9304 0.571161C13.9763 0.683284 14 0.803458 14 0.924819C14 1.16992 13.9036 1.40498 13.7321 1.5783L7.64587 7.72866C7.56106 7.81466 7.46028 7.88291 7.34931 7.92947C7.23834 7.97603 7.11936 8 6.99921 8C6.87905 8 6.76008 7.97603 6.64911 7.92947C6.53814 7.88291 6.43736 7.81466 6.35254 7.72866L0.266275 1.5783C0.0965978 1.40388 0.00104992 1.1694 5.75672e-07 0.924819V0.924819Z" fill="#2980B9"/>
</svg>
