<svg width="20" height="20" viewBox="0 0 20 20" fill="none" xmlns="http://www.w3.org/2000/svg">
<path d="M19.775 18.6848L15.6204 14.539C17.0867 12.793 17.8225 10.5481 17.6742 8.27274C17.5259 5.99733 16.5051 3.86701 14.8247 2.32609C13.1442 0.785172 10.9338 -0.0473769 8.65457 0.00208409C6.37531 0.0515451 4.20313 0.979197 2.59107 2.59157C0.979009 4.20394 0.0515353 6.37653 0.00208369 8.65623C-0.0473679 10.9359 0.785021 13.1467 2.32565 14.8275C3.86627 16.5083 5.99618 17.5293 8.27115 17.6776C10.5461 17.8259 12.7905 17.09 14.5362 15.6234L18.6812 19.7788C18.8279 19.9207 19.024 20 19.2281 20C19.4322 20 19.6283 19.9207 19.775 19.7788C19.9191 19.6332 20 19.4366 20 19.2318C20 19.0269 19.9191 18.8303 19.775 18.6848ZM1.57356 8.86735C1.57356 7.42483 2.00123 6.01471 2.80249 4.8153C3.60376 3.61589 4.74263 2.68107 6.07509 2.12904C7.40754 1.57701 8.87374 1.43258 10.2883 1.714C11.7028 1.99542 13.0021 2.69006 14.0219 3.71007C15.0418 4.73008 15.7363 6.02966 16.0176 7.44446C16.299 8.85925 16.1546 10.3257 15.6027 11.6584C15.0507 12.9912 14.1161 14.1302 12.9169 14.9317C11.7177 15.7331 10.3079 16.1608 8.86565 16.1608C6.93244 16.1583 5.07915 15.3891 3.71216 14.0218C2.34518 12.6546 1.57609 10.8009 1.57356 8.86735Z" fill="#7F8C8D"/>
</svg>
